<svg width="46" height="56" viewBox="0 0 46 56" fill="none" xmlns="http://www.w3.org/2000/svg">
<path d="M23 0C18.2439 0 14.3734 3.91726 14.3734 8.7309V22.5956C11.0867 19.6154 5.67495 19.7464 2.52337 22.9303C0.907541 24.5683 0 26.7884 0 29.103C0 31.4177 0.907541 33.6377 2.52337 35.2757L23 56L43.4766 35.2757C45.0925 33.6377 46 31.4177 46 29.103C46 26.7884 45.0925 24.5683 43.4766 22.9303C40.3308 19.7435 34.9104 19.6125 31.6266 22.5956V8.7309C31.6266 3.91726 27.7561 0 23 0ZM20.1245 36.629V8.7309C20.1576 7.98156 20.475 7.27402 21.0107 6.75561C21.5463 6.2372 22.2589 5.94787 23 5.94787C23.7411 5.94787 24.4537 6.2372 24.9893 6.75561C25.525 7.27402 25.8424 7.98156 25.8755 8.7309V36.629L35.3446 27.0454C35.892 26.5157 36.6202 26.22 37.3776 26.22C38.135 26.22 38.8632 26.5157 39.4106 27.0454C39.6779 27.3155 39.8899 27.6362 40.0346 27.9893C40.1793 28.3423 40.2537 28.7208 40.2537 29.103C40.2537 29.4852 40.1793 29.8637 40.0346 30.2168C39.8899 30.5698 39.6779 30.8905 39.4106 31.1606L23 47.7697L6.58936 31.1606C6.3221 30.8905 6.11006 30.5698 5.96539 30.2168C5.82072 29.8637 5.74626 29.4852 5.74626 29.103C5.74626 28.7208 5.82072 28.3423 5.96539 27.9893C6.11006 27.6362 6.3221 27.3155 6.58936 27.0454C7.13677 26.5157 7.86497 26.22 8.62236 26.22C9.37975 26.22 10.108 26.5157 10.6554 27.0454L20.1245 36.629Z" fill="white"/>
</svg>
