<svg width="80" height="40" viewBox="0 0 80 40" fill="none" xmlns="http://www.w3.org/2000/svg">
<path d="M80 36.6304C79.7307 37.2962 79.494 37.9755 78.9369 38.4964C78.208 39.1803 77.3538 39.5607 76.3417 39.5607C69.9721 39.5607 63.6072 39.5788 57.2377 39.5607C52.8087 39.5471 48.7651 35.9964 48.2266 31.721C48.1569 31.1775 48.1291 30.6386 48.1291 30.0996C48.1291 23.596 48.1291 17.0969 48.1291 10.5933C48.1291 5.51177 52.1681 1.13678 57.363 0.652174C60.1578 0.389493 62.9666 0.525362 65.766 0.57971C67.8876 0.615942 69.48 2.49547 69.4058 4.62409C69.3361 6.57609 67.5812 8.24275 65.5525 8.2654C63.974 8.28351 62.3955 8.2654 60.8171 8.2654C58.3983 8.26993 56.5831 10.0408 56.5924 12.3822C56.6017 14.6739 58.4355 16.4176 60.8403 16.4221C63.5144 16.4221 66.1885 16.4221 68.8579 16.4221C70.9935 16.4221 72.6416 17.9982 72.637 20.0226C72.6323 22.0199 70.9889 23.587 68.8812 23.5915C66.2071 23.5915 63.533 23.5915 60.8635 23.5915C58.4262 23.5915 56.597 25.3442 56.597 27.6676C56.597 29.9955 58.4215 31.7482 60.8589 31.7482C65.9285 31.7482 70.9935 31.7482 76.0631 31.7482C78.0548 31.7482 79.3408 32.6902 79.9072 34.5562C79.9211 34.6015 79.9675 34.6422 80 34.683V36.6395V36.6304Z" fill="url(#paint0_linear_2372_1897)"/>
<path d="M22.3955 0C23.4819 0.276268 24.4893 0.688406 25.2739 1.51721C25.8496 2.12862 26.2581 2.82609 26.4763 3.62772C29.2433 13.7092 32.0195 23.7908 34.7679 33.8813C35.5293 36.6757 33.8487 39.2663 30.9424 39.9049C30.8774 39.9185 30.8171 39.9683 30.7521 40H29.3036C29.2386 39.9683 29.1736 39.923 29.104 39.9094C27.0427 39.4792 25.7242 38.2745 25.1718 36.2908C24.4197 33.5915 23.6862 30.8877 22.9434 28.1884C22.5348 26.7074 22.1263 25.231 21.7131 23.7545C21.6852 23.7545 21.6527 23.7545 21.6249 23.7545C20.9099 26.3542 20.1903 28.9538 19.4429 31.6712C19.3593 31.413 19.3083 31.2817 19.2711 31.1458C17.6509 25.2536 16.0306 19.3659 14.4058 13.4737C14.3222 13.1703 14.3175 12.8804 14.4058 12.577C15.2228 9.63315 16.026 6.68478 16.8384 3.74094C17.3027 2.05163 18.3658 0.878623 20.0557 0.26721C20.3482 0.163043 20.6546 0.0905797 20.9517 0.00452899C21.4345 0.00452899 21.9174 0.00452899 22.4002 0.00452899L22.3955 0Z" fill="black"/>
<path d="M0 5.54348V4.13043C0.264624 3.2654 0.557103 2.42754 1.16992 1.71649C1.987 0.778986 3.05014 0.298913 4.23398 0C4.71681 0 5.19963 0 5.68245 0C5.74745 0.0317029 5.8078 0.0815217 5.8728 0.0951087C7.93408 0.53442 9.22934 1.7663 9.79109 3.73188C10.1253 4.89583 10.4318 6.06431 10.7521 7.23279C13.1941 16.1322 15.6407 25.0317 18.0687 33.9357C18.5655 35.7518 18.0362 37.3188 16.7084 38.6549C15.9703 39.3931 15.0186 39.7237 14.039 40H12.5905C12.507 39.9683 12.4234 39.923 12.3352 39.9049C10.325 39.4656 9.01114 38.279 8.47725 36.3496C6.27205 28.3786 4.09007 20.4076 1.89879 12.4321C1.26741 10.1359 0.631383 7.83967 0 5.54348Z" fill="black"/>
<path d="M39.1086 0C40.0789 0.258152 41.0121 0.57971 41.7502 1.29076C43.1291 2.61775 43.6769 4.21649 43.1848 6.04167C40.9053 14.4429 38.584 22.8351 36.2767 31.2319C36.2488 31.3361 36.2071 31.4357 36.1281 31.6531C35.8449 30.6431 35.585 29.7328 35.3343 28.8179C33.9369 23.7319 32.5487 18.6413 31.1467 13.5598C31.0399 13.1793 31.0446 12.8351 31.1467 12.4592C31.9499 9.58786 32.7437 6.71649 33.519 3.83605C34.0715 1.78895 35.3853 0.525362 37.5163 0.0815217C37.5673 0.0724638 37.6091 0.0271739 37.6555 0C38.1384 0 38.6212 0 39.104 0H39.1086Z" fill="black"/>
<path d="M80 5.32609C79.7029 6.4221 79.1876 7.36866 78.1894 8.02083C76.8199 8.91304 75.0093 8.92663 73.6305 8.03895C72.2191 7.13315 71.5088 5.53442 71.8895 3.83605C72.247 2.22826 73.3148 1.15036 74.9582 0.819746C77.4559 0.317029 79.3083 1.69837 79.8839 3.73188C79.9118 3.83605 79.8979 3.94928 80 4.02174V5.32609Z" fill="url(#paint1_linear_2372_1897)"/>
<defs>
<linearGradient id="paint0_linear_2372_1897" x1="51.1013" y1="25.6897" x2="81.761" y2="24.7892" gradientUnits="userSpaceOnUse">
<stop stop-color="#FF56BB"/>
<stop offset="1" stop-color="#FF8F77"/>
</linearGradient>
<linearGradient id="paint1_linear_2372_1897" x1="51.1013" y1="25.6897" x2="81.761" y2="24.7892" gradientUnits="userSpaceOnUse">
<stop stop-color="#FF56BB"/>
<stop offset="1" stop-color="#FF8F77"/>
</linearGradient>
</defs>
</svg>
