<svg width="17" height="13" viewBox="0 0 17 13" fill="none" xmlns="http://www.w3.org/2000/svg">
<path d="M13.4587 0.285156H4.12533C3.2416 0.286215 2.39436 0.637747 1.76947 1.26265C1.14458 1.88754 0.793051 2.73478 0.791992 3.61852H16.792C16.7909 2.73478 16.4394 1.88754 15.8145 1.26265C15.1896 0.637747 14.3424 0.286215 13.4587 0.285156Z" fill="white"/>
<path d="M0.791992 8.9518C0.793051 9.83553 1.14458 10.6828 1.76947 11.3077C2.39436 11.9326 3.2416 12.2841 4.12533 12.2852H13.4587C14.3424 12.2841 15.1896 11.9326 15.8145 11.3077C16.4394 10.6828 16.7909 9.83553 16.792 8.9518V4.95177H0.791992V8.9518ZM5.45866 8.61846C5.45866 8.81624 5.40001 9.00958 5.29013 9.17404C5.18025 9.33849 5.02407 9.46666 4.84134 9.54235C4.65862 9.61804 4.45755 9.63784 4.26357 9.59925C4.06959 9.56067 3.8914 9.46543 3.75155 9.32557C3.6117 9.18572 3.51646 9.00754 3.47787 8.81355C3.43929 8.61957 3.45909 8.4185 3.53478 8.23577C3.61047 8.05305 3.73864 7.89687 3.90309 7.78698C4.06754 7.6771 4.26088 7.61845 4.45866 7.61845C4.72388 7.61845 4.97823 7.72381 5.16577 7.91135C5.3533 8.09889 5.45866 8.35324 5.45866 8.61846Z" fill="white"/>
</svg>
